<mxfile host="app.diagrams.net" agent="Mozilla/5.0 (Windows NT 10.0; Win64; x64) AppleWebKit/537.36 (KHTML, like Gecko) Chrome/126.0.0.0 Safari/537.36 OPR/112.0.0.0" version="24.7.7">
  <diagram name="PÃ¡gina-1" id="V17KH4czwe9M7wfOvnJC">
    <mxGraphModel grid="1" page="1" gridSize="10" guides="1" tooltips="1" connect="1" arrows="1" fold="1" pageScale="1" pageWidth="2500" pageHeight="2500" math="0" shadow="0">
      <root>
        <mxCell id="0" />
        <mxCell id="1" parent="0" />
        <mxCell id="Hheq7XL-GTpW5ub1bjV0-31" style="edgeStyle=none;shape=connector;rounded=0;orthogonalLoop=1;jettySize=auto;html=1;exitX=1;exitY=0;exitDx=0;exitDy=0;entryX=0;entryY=1;entryDx=0;entryDy=0;strokeColor=default;align=center;verticalAlign=middle;fontFamily=Helvetica;fontSize=11;fontColor=default;labelBackgroundColor=default;endArrow=none;endFill=0;" edge="1" parent="1" source="u5ZWc_ek8H2sY0HCUJAZ-1" target="Hheq7XL-GTpW5ub1bjV0-2">
          <mxGeometry relative="1" as="geometry" />
        </mxCell>
        <mxCell id="Hheq7XL-GTpW5ub1bjV0-33" style="edgeStyle=none;shape=connector;rounded=0;orthogonalLoop=1;jettySize=auto;html=1;exitX=0;exitY=0.25;exitDx=0;exitDy=0;entryX=1;entryY=0.5;entryDx=0;entryDy=0;strokeColor=default;align=center;verticalAlign=middle;fontFamily=Helvetica;fontSize=11;fontColor=default;labelBackgroundColor=default;endArrow=none;endFill=0;" edge="1" parent="1" source="u5ZWc_ek8H2sY0HCUJAZ-1" target="u5ZWc_ek8H2sY0HCUJAZ-6">
          <mxGeometry relative="1" as="geometry" />
        </mxCell>
        <mxCell id="Hheq7XL-GTpW5ub1bjV0-34" style="edgeStyle=none;shape=connector;rounded=0;orthogonalLoop=1;jettySize=auto;html=1;exitX=0;exitY=0;exitDx=0;exitDy=0;entryX=1;entryY=1;entryDx=0;entryDy=0;strokeColor=default;align=center;verticalAlign=middle;fontFamily=Helvetica;fontSize=11;fontColor=default;labelBackgroundColor=default;endArrow=none;endFill=0;" edge="1" parent="1" source="u5ZWc_ek8H2sY0HCUJAZ-1" target="Hheq7XL-GTpW5ub1bjV0-3">
          <mxGeometry relative="1" as="geometry" />
        </mxCell>
        <mxCell id="Hheq7XL-GTpW5ub1bjV0-57" style="edgeStyle=none;shape=connector;rounded=0;orthogonalLoop=1;jettySize=auto;html=1;exitX=1;exitY=0.5;exitDx=0;exitDy=0;strokeColor=default;align=center;verticalAlign=middle;fontFamily=Helvetica;fontSize=11;fontColor=default;labelBackgroundColor=default;endArrow=none;endFill=0;" edge="1" parent="1" source="u5ZWc_ek8H2sY0HCUJAZ-1" target="u5ZWc_ek8H2sY0HCUJAZ-60">
          <mxGeometry relative="1" as="geometry" />
        </mxCell>
        <mxCell id="Hheq7XL-GTpW5ub1bjV0-63" style="edgeStyle=none;shape=connector;rounded=0;orthogonalLoop=1;jettySize=auto;html=1;exitX=0.25;exitY=0;exitDx=0;exitDy=0;entryX=0.5;entryY=1;entryDx=0;entryDy=0;strokeColor=default;align=center;verticalAlign=middle;fontFamily=Helvetica;fontSize=11;fontColor=default;labelBackgroundColor=default;endArrow=none;endFill=0;" edge="1" parent="1" source="u5ZWc_ek8H2sY0HCUJAZ-1" target="u5ZWc_ek8H2sY0HCUJAZ-16">
          <mxGeometry relative="1" as="geometry" />
        </mxCell>
        <mxCell id="u5ZWc_ek8H2sY0HCUJAZ-1" value="Pessoa" style="whiteSpace=wrap;html=1;align=center;" vertex="1" parent="1">
          <mxGeometry x="450" y="360" width="100" height="40" as="geometry" />
        </mxCell>
        <mxCell id="Hheq7XL-GTpW5ub1bjV0-26" style="edgeStyle=none;shape=connector;rounded=0;orthogonalLoop=1;jettySize=auto;html=1;exitX=1;exitY=0.5;exitDx=0;exitDy=0;entryX=0;entryY=0.5;entryDx=0;entryDy=0;strokeColor=default;align=center;verticalAlign=middle;fontFamily=Helvetica;fontSize=11;fontColor=default;labelBackgroundColor=default;endArrow=none;endFill=0;" edge="1" parent="1" source="Hheq7XL-GTpW5ub1bjV0-1" target="u5ZWc_ek8H2sY0HCUJAZ-7">
          <mxGeometry relative="1" as="geometry" />
        </mxCell>
        <mxCell id="Hheq7XL-GTpW5ub1bjV0-1" value="Objeto" style="whiteSpace=wrap;html=1;align=center;" vertex="1" parent="1">
          <mxGeometry x="1060" y="590" width="100" height="40" as="geometry" />
        </mxCell>
        <mxCell id="u5ZWc_ek8H2sY0HCUJAZ-41" style="edgeStyle=orthogonalEdgeStyle;shape=connector;rounded=0;orthogonalLoop=1;jettySize=auto;html=1;exitX=0.5;exitY=1;exitDx=0;exitDy=0;entryX=0.5;entryY=0;entryDx=0;entryDy=0;strokeColor=default;align=center;verticalAlign=middle;fontFamily=Helvetica;fontSize=11;fontColor=default;labelBackgroundColor=default;endArrow=none;endFill=0;" edge="1" parent="1" source="u5ZWc_ek8H2sY0HCUJAZ-3" target="u5ZWc_ek8H2sY0HCUJAZ-19">
          <mxGeometry relative="1" as="geometry" />
        </mxCell>
        <mxCell id="IyK27JAhVdKkda_zyrhR-17" value="Text" style="edgeLabel;html=1;align=center;verticalAlign=middle;resizable=0;points=[];fontFamily=Helvetica;fontSize=11;fontColor=default;labelBackgroundColor=default;" connectable="0" vertex="1" parent="u5ZWc_ek8H2sY0HCUJAZ-41">
          <mxGeometry x="-0.6842" y="-1" relative="1" as="geometry">
            <mxPoint as="offset" />
          </mxGeometry>
        </mxCell>
        <mxCell id="Hheq7XL-GTpW5ub1bjV0-42" style="edgeStyle=none;shape=connector;rounded=0;orthogonalLoop=1;jettySize=auto;html=1;exitX=0;exitY=0.5;exitDx=0;exitDy=0;entryX=1;entryY=0.5;entryDx=0;entryDy=0;strokeColor=default;align=center;verticalAlign=middle;fontFamily=Helvetica;fontSize=11;fontColor=default;labelBackgroundColor=default;endArrow=none;endFill=0;" edge="1" parent="1" source="u5ZWc_ek8H2sY0HCUJAZ-3" target="IyK27JAhVdKkda_zyrhR-3">
          <mxGeometry relative="1" as="geometry" />
        </mxCell>
        <mxCell id="Hheq7XL-GTpW5ub1bjV0-43" style="edgeStyle=none;shape=connector;rounded=0;orthogonalLoop=1;jettySize=auto;html=1;exitX=0;exitY=0.75;exitDx=0;exitDy=0;entryX=1;entryY=0.5;entryDx=0;entryDy=0;strokeColor=default;align=center;verticalAlign=middle;fontFamily=Helvetica;fontSize=11;fontColor=default;labelBackgroundColor=default;endArrow=none;endFill=0;" edge="1" parent="1" source="u5ZWc_ek8H2sY0HCUJAZ-3" target="u5ZWc_ek8H2sY0HCUJAZ-8">
          <mxGeometry relative="1" as="geometry" />
        </mxCell>
        <mxCell id="Hheq7XL-GTpW5ub1bjV0-52" value="(1,1)" style="edgeStyle=none;shape=connector;rounded=0;orthogonalLoop=1;jettySize=auto;html=1;exitX=1;exitY=0.5;exitDx=0;exitDy=0;entryX=0;entryY=0.5;entryDx=0;entryDy=0;strokeColor=default;align=center;verticalAlign=middle;fontFamily=Helvetica;fontSize=11;fontColor=default;labelBackgroundColor=default;endArrow=none;endFill=0;" edge="1" parent="1" source="u5ZWc_ek8H2sY0HCUJAZ-3" target="u5ZWc_ek8H2sY0HCUJAZ-55">
          <mxGeometry x="-0.814" relative="1" as="geometry">
            <mxPoint as="offset" />
          </mxGeometry>
        </mxCell>
        <mxCell id="u5ZWc_ek8H2sY0HCUJAZ-3" value="Protocolo" style="whiteSpace=wrap;html=1;align=center;" vertex="1" parent="1">
          <mxGeometry x="450" y="590" width="100" height="40" as="geometry" />
        </mxCell>
        <mxCell id="u5ZWc_ek8H2sY0HCUJAZ-6" value="Codigo / id&lt;div&gt;cpf?&lt;/div&gt;" style="ellipse;whiteSpace=wrap;html=1;align=center;fontStyle=4;" vertex="1" parent="1">
          <mxGeometry x="280" y="310" width="100" height="40" as="geometry" />
        </mxCell>
        <mxCell id="Hheq7XL-GTpW5ub1bjV0-2" value="Nome" style="ellipse;whiteSpace=wrap;html=1;align=center;" vertex="1" parent="1">
          <mxGeometry x="590" y="280" width="100" height="40" as="geometry" />
        </mxCell>
        <mxCell id="u5ZWc_ek8H2sY0HCUJAZ-7" value="Codigo / id" style="ellipse;whiteSpace=wrap;html=1;align=center;fontStyle=4;" vertex="1" parent="1">
          <mxGeometry x="1210" y="590" width="100" height="40" as="geometry" />
        </mxCell>
        <mxCell id="u5ZWc_ek8H2sY0HCUJAZ-8" value="Codigo / id" style="ellipse;whiteSpace=wrap;html=1;align=center;fontStyle=4;" vertex="1" parent="1">
          <mxGeometry x="180" y="720" width="100" height="40" as="geometry" />
        </mxCell>
        <mxCell id="Hheq7XL-GTpW5ub1bjV0-3" value="Email" style="ellipse;whiteSpace=wrap;html=1;align=center;" vertex="1" parent="1">
          <mxGeometry x="330" y="250" width="100" height="40" as="geometry" />
        </mxCell>
        <mxCell id="IyK27JAhVdKkda_zyrhR-2" value="RegistroPuc" style="ellipse;whiteSpace=wrap;html=1;align=center;" vertex="1" parent="1">
          <mxGeometry x="960" y="390" width="100" height="40" as="geometry" />
        </mxCell>
        <mxCell id="Hheq7XL-GTpW5ub1bjV0-44" style="edgeStyle=none;shape=connector;rounded=0;orthogonalLoop=1;jettySize=auto;html=1;exitX=0;exitY=0.5;exitDx=0;exitDy=0;entryX=1;entryY=1;entryDx=0;entryDy=0;strokeColor=default;align=center;verticalAlign=middle;fontFamily=Helvetica;fontSize=11;fontColor=default;labelBackgroundColor=default;endArrow=none;endFill=0;" edge="1" parent="1" source="u5ZWc_ek8H2sY0HCUJAZ-3" target="u5ZWc_ek8H2sY0HCUJAZ-46">
          <mxGeometry relative="1" as="geometry">
            <mxPoint x="805" y="589.9999999999998" as="sourcePoint" />
          </mxGeometry>
        </mxCell>
        <mxCell id="Hheq7XL-GTpW5ub1bjV0-46" style="edgeStyle=none;shape=connector;rounded=0;orthogonalLoop=1;jettySize=auto;html=1;exitX=1;exitY=0.5;exitDx=0;exitDy=0;entryX=0.5;entryY=1;entryDx=0;entryDy=0;strokeColor=default;align=center;verticalAlign=middle;fontFamily=Helvetica;fontSize=11;fontColor=default;labelBackgroundColor=default;endArrow=none;endFill=0;" edge="1" parent="1" source="Hheq7XL-GTpW5ub1bjV0-1" target="u5ZWc_ek8H2sY0HCUJAZ-50">
          <mxGeometry relative="1" as="geometry">
            <mxPoint x="855" y="589.9999999999998" as="sourcePoint" />
            <mxPoint x="867.4792077025677" y="542.6382545826386" as="targetPoint" />
          </mxGeometry>
        </mxCell>
        <mxCell id="u5ZWc_ek8H2sY0HCUJAZ-40" style="edgeStyle=orthogonalEdgeStyle;shape=connector;rounded=0;orthogonalLoop=1;jettySize=auto;html=1;exitX=0.5;exitY=1;exitDx=0;exitDy=0;entryX=0.5;entryY=0;entryDx=0;entryDy=0;strokeColor=default;align=center;verticalAlign=middle;fontFamily=Helvetica;fontSize=11;fontColor=default;labelBackgroundColor=default;endArrow=none;endFill=0;" edge="1" parent="1" source="u5ZWc_ek8H2sY0HCUJAZ-14" target="u5ZWc_ek8H2sY0HCUJAZ-3">
          <mxGeometry relative="1" as="geometry" />
        </mxCell>
        <mxCell id="u5ZWc_ek8H2sY0HCUJAZ-54" value="(0,N)" style="edgeLabel;html=1;align=center;verticalAlign=middle;resizable=0;points=[];fontFamily=Helvetica;fontSize=11;fontColor=default;labelBackgroundColor=default;" vertex="1" connectable="0" parent="u5ZWc_ek8H2sY0HCUJAZ-40">
          <mxGeometry x="0.3463" relative="1" as="geometry">
            <mxPoint as="offset" />
          </mxGeometry>
        </mxCell>
        <mxCell id="u5ZWc_ek8H2sY0HCUJAZ-74" style="edgeStyle=orthogonalEdgeStyle;shape=connector;rounded=0;orthogonalLoop=1;jettySize=auto;html=1;exitX=0.5;exitY=0;exitDx=0;exitDy=0;strokeColor=default;align=center;verticalAlign=middle;fontFamily=Helvetica;fontSize=11;fontColor=default;labelBackgroundColor=default;endArrow=none;endFill=0;" edge="1" parent="1" source="u5ZWc_ek8H2sY0HCUJAZ-14" target="u5ZWc_ek8H2sY0HCUJAZ-1">
          <mxGeometry relative="1" as="geometry" />
        </mxCell>
        <mxCell id="u5ZWc_ek8H2sY0HCUJAZ-76" value="(1,N)" style="edgeLabel;html=1;align=center;verticalAlign=middle;resizable=0;points=[];fontFamily=Helvetica;fontSize=11;fontColor=default;labelBackgroundColor=default;" connectable="0" vertex="1" parent="u5ZWc_ek8H2sY0HCUJAZ-74">
          <mxGeometry x="0.7137" y="-2" relative="1" as="geometry">
            <mxPoint x="-2" y="13" as="offset" />
          </mxGeometry>
        </mxCell>
        <mxCell id="u5ZWc_ek8H2sY0HCUJAZ-14" value="trabalha com" style="shape=rhombus;perimeter=rhombusPerimeter;whiteSpace=wrap;html=1;align=center;" vertex="1" parent="1">
          <mxGeometry x="440" y="450" width="120" height="60" as="geometry" />
        </mxCell>
        <mxCell id="u5ZWc_ek8H2sY0HCUJAZ-15" value="senha?" style="ellipse;shape=doubleEllipse;margin=3;whiteSpace=wrap;html=1;align=center;" vertex="1" parent="1">
          <mxGeometry x="530" y="220" width="100" height="40" as="geometry" />
        </mxCell>
        <mxCell id="u5ZWc_ek8H2sY0HCUJAZ-16" value="Nivel de SeguranÃ§a?" style="ellipse;shape=doubleEllipse;margin=3;whiteSpace=wrap;html=1;align=center;" vertex="1" parent="1">
          <mxGeometry x="420" y="220" width="100" height="40" as="geometry" />
        </mxCell>
        <mxCell id="IyK27JAhVdKkda_zyrhR-3" value="DataDeFechamento" style="ellipse;whiteSpace=wrap;html=1;align=center;" vertex="1" parent="1">
          <mxGeometry x="150" y="670" width="120" height="40" as="geometry" />
        </mxCell>
        <mxCell id="u5ZWc_ek8H2sY0HCUJAZ-45" style="edgeStyle=orthogonalEdgeStyle;shape=connector;rounded=0;orthogonalLoop=1;jettySize=auto;html=1;exitX=1;exitY=0.25;exitDx=0;exitDy=0;entryX=0;entryY=0.5;entryDx=0;entryDy=0;strokeColor=default;align=center;verticalAlign=middle;fontFamily=Helvetica;fontSize=11;fontColor=default;labelBackgroundColor=default;endArrow=none;endFill=0;" edge="1" parent="1" source="Hheq7XL-GTpW5ub1bjV0-14" target="u5ZWc_ek8H2sY0HCUJAZ-20">
          <mxGeometry relative="1" as="geometry" />
        </mxCell>
        <mxCell id="u5ZWc_ek8H2sY0HCUJAZ-78" value="(1,1)" style="edgeLabel;html=1;align=center;verticalAlign=middle;resizable=0;points=[];fontFamily=Helvetica;fontSize=11;fontColor=default;labelBackgroundColor=default;" connectable="0" vertex="1" parent="u5ZWc_ek8H2sY0HCUJAZ-45">
          <mxGeometry x="-0.7235" y="3" relative="1" as="geometry">
            <mxPoint as="offset" />
          </mxGeometry>
        </mxCell>
        <mxCell id="Hheq7XL-GTpW5ub1bjV0-14" value="Local" style="whiteSpace=wrap;html=1;align=center;" vertex="1" parent="1">
          <mxGeometry x="775" y="760" width="100" height="40" as="geometry" />
        </mxCell>
        <mxCell id="u5ZWc_ek8H2sY0HCUJAZ-17" value="bloco" style="ellipse;whiteSpace=wrap;html=1;align=center;" vertex="1" parent="1">
          <mxGeometry x="850" y="850" width="100" height="40" as="geometry" />
        </mxCell>
        <mxCell id="u5ZWc_ek8H2sY0HCUJAZ-18" value="sala" style="ellipse;whiteSpace=wrap;html=1;align=center;" vertex="1" parent="1">
          <mxGeometry x="690" y="850" width="100" height="40" as="geometry" />
        </mxCell>
        <mxCell id="u5ZWc_ek8H2sY0HCUJAZ-42" style="edgeStyle=orthogonalEdgeStyle;shape=connector;rounded=0;orthogonalLoop=1;jettySize=auto;html=1;exitX=1;exitY=0.5;exitDx=0;exitDy=0;entryX=0;entryY=0.5;entryDx=0;entryDy=0;strokeColor=default;align=center;verticalAlign=middle;fontFamily=Helvetica;fontSize=11;fontColor=default;labelBackgroundColor=default;endArrow=none;endFill=0;" edge="1" parent="1" source="u5ZWc_ek8H2sY0HCUJAZ-19" target="Hheq7XL-GTpW5ub1bjV0-14">
          <mxGeometry relative="1" as="geometry" />
        </mxCell>
        <mxCell id="IyK27JAhVdKkda_zyrhR-16" value="1,1" style="edgeLabel;html=1;align=center;verticalAlign=middle;resizable=0;points=[];fontFamily=Helvetica;fontSize=11;fontColor=default;labelBackgroundColor=default;" connectable="0" vertex="1" parent="u5ZWc_ek8H2sY0HCUJAZ-42">
          <mxGeometry x="0.7846" y="-4" relative="1" as="geometry">
            <mxPoint as="offset" />
          </mxGeometry>
        </mxCell>
        <mxCell id="u5ZWc_ek8H2sY0HCUJAZ-19" value="possui" style="shape=rhombus;perimeter=rhombusPerimeter;whiteSpace=wrap;html=1;align=center;" vertex="1" parent="1">
          <mxGeometry x="520" y="730" width="120" height="60" as="geometry" />
        </mxCell>
        <mxCell id="u5ZWc_ek8H2sY0HCUJAZ-44" style="edgeStyle=orthogonalEdgeStyle;shape=connector;rounded=0;orthogonalLoop=1;jettySize=auto;html=1;exitX=0.5;exitY=0;exitDx=0;exitDy=0;entryX=0.5;entryY=1;entryDx=0;entryDy=0;strokeColor=default;align=center;verticalAlign=middle;fontFamily=Helvetica;fontSize=11;fontColor=default;labelBackgroundColor=default;endArrow=none;endFill=0;" edge="1" parent="1" source="u5ZWc_ek8H2sY0HCUJAZ-20" target="Hheq7XL-GTpW5ub1bjV0-1">
          <mxGeometry relative="1" as="geometry" />
        </mxCell>
        <mxCell id="u5ZWc_ek8H2sY0HCUJAZ-79" value="(1,1)" style="edgeLabel;html=1;align=center;verticalAlign=middle;resizable=0;points=[];fontFamily=Helvetica;fontSize=11;fontColor=default;labelBackgroundColor=default;" connectable="0" vertex="1" parent="u5ZWc_ek8H2sY0HCUJAZ-44">
          <mxGeometry x="0.7594" y="-3" relative="1" as="geometry">
            <mxPoint as="offset" />
          </mxGeometry>
        </mxCell>
        <mxCell id="u5ZWc_ek8H2sY0HCUJAZ-20" value="encontrado no" style="shape=rhombus;perimeter=rhombusPerimeter;whiteSpace=wrap;html=1;align=center;" vertex="1" parent="1">
          <mxGeometry x="1000" y="710" width="120" height="60" as="geometry" />
        </mxCell>
        <mxCell id="Hheq7XL-GTpW5ub1bjV0-30" style="edgeStyle=none;shape=connector;rounded=0;orthogonalLoop=1;jettySize=auto;html=1;exitX=0.75;exitY=0;exitDx=0;exitDy=0;entryX=0.402;entryY=0.895;entryDx=0;entryDy=0;entryPerimeter=0;strokeColor=default;align=center;verticalAlign=middle;fontFamily=Helvetica;fontSize=11;fontColor=default;labelBackgroundColor=default;endArrow=none;endFill=0;" edge="1" parent="1" source="u5ZWc_ek8H2sY0HCUJAZ-1" target="u5ZWc_ek8H2sY0HCUJAZ-15">
          <mxGeometry relative="1" as="geometry" />
        </mxCell>
        <mxCell id="Hheq7XL-GTpW5ub1bjV0-38" style="edgeStyle=none;shape=connector;rounded=0;orthogonalLoop=1;jettySize=auto;html=1;exitX=0.25;exitY=1;exitDx=0;exitDy=0;strokeColor=default;align=center;verticalAlign=middle;fontFamily=Helvetica;fontSize=11;fontColor=default;labelBackgroundColor=default;endArrow=none;endFill=0;" edge="1" parent="1" source="Hheq7XL-GTpW5ub1bjV0-14" target="u5ZWc_ek8H2sY0HCUJAZ-18">
          <mxGeometry relative="1" as="geometry" />
        </mxCell>
        <mxCell id="Hheq7XL-GTpW5ub1bjV0-40" style="edgeStyle=none;shape=connector;rounded=0;orthogonalLoop=1;jettySize=auto;html=1;exitX=0.75;exitY=1;exitDx=0;exitDy=0;entryX=0.378;entryY=0.045;entryDx=0;entryDy=0;entryPerimeter=0;strokeColor=default;align=center;verticalAlign=middle;fontFamily=Helvetica;fontSize=11;fontColor=default;labelBackgroundColor=default;endArrow=none;endFill=0;" edge="1" parent="1" source="Hheq7XL-GTpW5ub1bjV0-14" target="u5ZWc_ek8H2sY0HCUJAZ-17">
          <mxGeometry relative="1" as="geometry" />
        </mxCell>
        <mxCell id="u5ZWc_ek8H2sY0HCUJAZ-46" value="Aberto/fechado" style="ellipse;whiteSpace=wrap;html=1;align=center;fontFamily=Helvetica;fontSize=11;fontColor=default;labelBackgroundColor=default;" vertex="1" parent="1">
          <mxGeometry x="290" y="460" width="100" height="40" as="geometry" />
        </mxCell>
        <mxCell id="IyK27JAhVdKkda_zyrhR-4" value="DataDeAbertura" style="ellipse;whiteSpace=wrap;html=1;align=center;" vertex="1" parent="1">
          <mxGeometry x="170" y="620" width="100" height="40" as="geometry" />
        </mxCell>
        <mxCell id="IyK27JAhVdKkda_zyrhR-6" value="DataDePerda" style="ellipse;whiteSpace=wrap;html=1;align=center;fontFamily=Helvetica;fontSize=11;fontColor=default;labelBackgroundColor=default;" vertex="1" parent="1">
          <mxGeometry x="170" y="570" width="100" height="40" as="geometry" />
        </mxCell>
        <mxCell id="u5ZWc_ek8H2sY0HCUJAZ-50" value="Encontrado/&lt;div&gt;NaoEncontrado&lt;/div&gt;" style="ellipse;whiteSpace=wrap;html=1;align=center;fontFamily=Helvetica;fontSize=11;fontColor=default;labelBackgroundColor=default;" vertex="1" parent="1">
          <mxGeometry x="1200" y="670" width="100" height="40" as="geometry" />
        </mxCell>
        <mxCell id="u5ZWc_ek8H2sY0HCUJAZ-51" value="pessoaAbriu" style="ellipse;whiteSpace=wrap;html=1;align=center;fontFamily=Helvetica;fontSize=11;fontColor=default;labelBackgroundColor=default;" vertex="1" parent="1">
          <mxGeometry x="170" y="520" width="100" height="40" as="geometry" />
        </mxCell>
        <mxCell id="u5ZWc_ek8H2sY0HCUJAZ-52" value="pessoaFechou" style="ellipse;whiteSpace=wrap;html=1;align=center;fontFamily=Helvetica;fontSize=11;fontColor=default;labelBackgroundColor=default;" vertex="1" parent="1">
          <mxGeometry x="190" y="470" width="100" height="40" as="geometry" />
        </mxCell>
        <mxCell id="IyK27JAhVdKkda_zyrhR-9" style="edgeStyle=none;shape=connector;rounded=0;orthogonalLoop=1;jettySize=auto;html=1;exitX=0;exitY=0.5;exitDx=0;exitDy=0;entryX=1;entryY=0.5;entryDx=0;entryDy=0;strokeColor=default;align=center;verticalAlign=middle;fontFamily=Helvetica;fontSize=11;fontColor=default;labelBackgroundColor=default;endArrow=none;endFill=0;" edge="1" parent="1" source="u5ZWc_ek8H2sY0HCUJAZ-3" target="IyK27JAhVdKkda_zyrhR-4">
          <mxGeometry relative="1" as="geometry">
            <mxPoint x="460" y="610" as="sourcePoint" />
            <mxPoint x="360" y="700" as="targetPoint" />
          </mxGeometry>
        </mxCell>
        <mxCell id="IyK27JAhVdKkda_zyrhR-10" style="edgeStyle=none;shape=connector;rounded=0;orthogonalLoop=1;jettySize=auto;html=1;exitX=0;exitY=0.5;exitDx=0;exitDy=0;entryX=1;entryY=0.5;entryDx=0;entryDy=0;strokeColor=default;align=center;verticalAlign=middle;fontFamily=Helvetica;fontSize=11;fontColor=default;labelBackgroundColor=default;endArrow=none;endFill=0;" edge="1" parent="1" source="u5ZWc_ek8H2sY0HCUJAZ-3" target="IyK27JAhVdKkda_zyrhR-6">
          <mxGeometry relative="1" as="geometry">
            <mxPoint x="460" y="620" as="sourcePoint" />
            <mxPoint x="350" y="640" as="targetPoint" />
          </mxGeometry>
        </mxCell>
        <mxCell id="IyK27JAhVdKkda_zyrhR-11" style="edgeStyle=none;shape=connector;rounded=0;orthogonalLoop=1;jettySize=auto;html=1;exitX=0;exitY=0.5;exitDx=0;exitDy=0;entryX=1;entryY=1;entryDx=0;entryDy=0;strokeColor=default;align=center;verticalAlign=middle;fontFamily=Helvetica;fontSize=11;fontColor=default;labelBackgroundColor=default;endArrow=none;endFill=0;" edge="1" parent="1" source="u5ZWc_ek8H2sY0HCUJAZ-3" target="u5ZWc_ek8H2sY0HCUJAZ-51">
          <mxGeometry relative="1" as="geometry">
            <mxPoint x="460" y="560" as="sourcePoint" />
            <mxPoint x="360" y="530" as="targetPoint" />
          </mxGeometry>
        </mxCell>
        <mxCell id="IyK27JAhVdKkda_zyrhR-13" style="edgeStyle=none;shape=connector;rounded=0;orthogonalLoop=1;jettySize=auto;html=1;exitX=0;exitY=0.5;exitDx=0;exitDy=0;entryX=0.796;entryY=0.937;entryDx=0;entryDy=0;strokeColor=default;align=center;verticalAlign=middle;fontFamily=Helvetica;fontSize=11;fontColor=default;labelBackgroundColor=default;endArrow=none;endFill=0;entryPerimeter=0;" edge="1" parent="1" source="u5ZWc_ek8H2sY0HCUJAZ-3" target="u5ZWc_ek8H2sY0HCUJAZ-52">
          <mxGeometry relative="1" as="geometry">
            <mxPoint x="480" y="560" as="sourcePoint" />
            <mxPoint x="390" y="480" as="targetPoint" />
          </mxGeometry>
        </mxCell>
        <mxCell id="u5ZWc_ek8H2sY0HCUJAZ-56" style="edgeStyle=orthogonalEdgeStyle;shape=connector;rounded=0;orthogonalLoop=1;jettySize=auto;html=1;exitX=1;exitY=0.5;exitDx=0;exitDy=0;entryX=0;entryY=0.5;entryDx=0;entryDy=0;strokeColor=default;align=center;verticalAlign=middle;fontFamily=Helvetica;fontSize=11;fontColor=default;labelBackgroundColor=default;endArrow=none;endFill=0;" edge="1" parent="1" source="u5ZWc_ek8H2sY0HCUJAZ-55" target="Hheq7XL-GTpW5ub1bjV0-1">
          <mxGeometry relative="1" as="geometry" />
        </mxCell>
        <mxCell id="u5ZWc_ek8H2sY0HCUJAZ-55" value="pertence" style="shape=rhombus;perimeter=rhombusPerimeter;whiteSpace=wrap;html=1;align=center;fontFamily=Helvetica;fontSize=11;fontColor=default;labelBackgroundColor=default;" vertex="1" parent="1">
          <mxGeometry x="765" y="580" width="120" height="60" as="geometry" />
        </mxCell>
        <mxCell id="Hheq7XL-GTpW5ub1bjV0-49" value="Finalidade" style="ellipse;shape=doubleEllipse;margin=3;whiteSpace=wrap;html=1;align=center;fontFamily=Helvetica;fontSize=11;fontColor=default;labelBackgroundColor=default;" vertex="1" parent="1">
          <mxGeometry x="560" y="530" width="100" height="40" as="geometry" />
        </mxCell>
        <mxCell id="Hheq7XL-GTpW5ub1bjV0-53" value="1,1" style="text;html=1;align=center;verticalAlign=middle;resizable=0;points=[];autosize=1;strokeColor=none;fillColor=none;fontFamily=Helvetica;fontSize=11;fontColor=default;labelBackgroundColor=default;" vertex="1" parent="1">
          <mxGeometry x="1010" y="595" width="40" height="30" as="geometry" />
        </mxCell>
        <mxCell id="IyK27JAhVdKkda_zyrhR-23" style="edgeStyle=none;shape=connector;rounded=0;orthogonalLoop=1;jettySize=auto;html=1;exitX=0.75;exitY=0;exitDx=0;exitDy=0;entryX=0;entryY=1;entryDx=0;entryDy=0;strokeColor=default;align=center;verticalAlign=middle;fontFamily=Helvetica;fontSize=11;fontColor=default;labelBackgroundColor=default;endArrow=none;endFill=0;" edge="1" parent="1" source="u5ZWc_ek8H2sY0HCUJAZ-3" target="Hheq7XL-GTpW5ub1bjV0-49">
          <mxGeometry relative="1" as="geometry">
            <mxPoint x="520" y="580" as="sourcePoint" />
            <mxPoint x="560" y="570" as="targetPoint" />
          </mxGeometry>
        </mxCell>
        <mxCell id="Hheq7XL-GTpW5ub1bjV0-58" style="edgeStyle=none;shape=connector;rounded=0;orthogonalLoop=1;jettySize=auto;html=1;exitX=0;exitY=0.75;exitDx=0;exitDy=0;entryX=0;entryY=0.5;entryDx=0;entryDy=0;strokeColor=default;align=center;verticalAlign=middle;fontFamily=Helvetica;fontSize=11;fontColor=default;labelBackgroundColor=default;endArrow=none;endFill=0;" edge="1" parent="1" source="u5ZWc_ek8H2sY0HCUJAZ-60" target="Hheq7XL-GTpW5ub1bjV0-55">
          <mxGeometry relative="1" as="geometry" />
        </mxCell>
        <mxCell id="Hheq7XL-GTpW5ub1bjV0-59" style="edgeStyle=none;shape=connector;rounded=0;orthogonalLoop=1;jettySize=auto;html=1;exitX=0;exitY=0.25;exitDx=0;exitDy=0;strokeColor=default;align=center;verticalAlign=middle;fontFamily=Helvetica;fontSize=11;fontColor=default;labelBackgroundColor=default;endArrow=none;endFill=0;" edge="1" parent="1" source="u5ZWc_ek8H2sY0HCUJAZ-60" target="Hheq7XL-GTpW5ub1bjV0-56">
          <mxGeometry relative="1" as="geometry" />
        </mxCell>
        <mxCell id="u5ZWc_ek8H2sY0HCUJAZ-60" value="" style="triangle;whiteSpace=wrap;html=1;fontFamily=Helvetica;fontSize=11;fontColor=default;labelBackgroundColor=default;direction=east;rotation=-180;" vertex="1" parent="1">
          <mxGeometry x="670" y="340" width="60" height="80" as="geometry" />
        </mxCell>
        <mxCell id="Hheq7XL-GTpW5ub1bjV0-55" value="Solicitante" style="whiteSpace=wrap;html=1;align=center;fontFamily=Helvetica;fontSize=11;fontColor=default;labelBackgroundColor=default;" vertex="1" parent="1">
          <mxGeometry x="800" y="320" width="100" height="40" as="geometry" />
        </mxCell>
        <mxCell id="Hheq7XL-GTpW5ub1bjV0-62" style="edgeStyle=none;shape=connector;rounded=0;orthogonalLoop=1;jettySize=auto;html=1;exitX=1;exitY=0.5;exitDx=0;exitDy=0;entryX=0;entryY=0.5;entryDx=0;entryDy=0;strokeColor=default;align=center;verticalAlign=middle;fontFamily=Helvetica;fontSize=11;fontColor=default;labelBackgroundColor=default;endArrow=none;endFill=0;" edge="1" parent="1" source="Hheq7XL-GTpW5ub1bjV0-56" target="IyK27JAhVdKkda_zyrhR-2">
          <mxGeometry relative="1" as="geometry" />
        </mxCell>
        <mxCell id="Hheq7XL-GTpW5ub1bjV0-56" value="Funcionario" style="whiteSpace=wrap;html=1;align=center;fontFamily=Helvetica;fontSize=11;fontColor=default;labelBackgroundColor=default;" vertex="1" parent="1">
          <mxGeometry x="810" y="390" width="100" height="40" as="geometry" />
        </mxCell>
        <mxCell id="u5ZWc_ek8H2sY0HCUJAZ-77" style="edgeStyle=orthogonalEdgeStyle;shape=connector;rounded=0;orthogonalLoop=1;jettySize=auto;html=1;exitX=0.5;exitY=1;exitDx=0;exitDy=0;strokeColor=default;align=center;verticalAlign=middle;fontFamily=Helvetica;fontSize=11;fontColor=default;labelBackgroundColor=default;endArrow=none;endFill=0;" edge="1" parent="1" source="Hheq7XL-GTpW5ub1bjV0-55" target="Hheq7XL-GTpW5ub1bjV0-55">
          <mxGeometry relative="1" as="geometry" />
        </mxCell>
      </root>
    </mxGraphModel>
  </diagram>
</mxfile>
